<svg width="71" height="54" viewBox="0 0 71 54" fill="none" xmlns="http://www.w3.org/2000/svg">
    <path d="M28.5 7H24C23.4477 7 23 7.44771 23 8V39C23 39.5523 23.4461 40 23.9983 40H28.5009C29.0532 40 29.5 39.5523 29.5 39V8C29.5 7.44772 29.0523 7 28.5 7Z" fill="white"/>
    <path fill-rule="evenodd" clip-rule="evenodd" d="M2 0C0.895432 0 0 0.89543 0 2V19.453C0 19.9835 0.210714 20.4922 0.585786 20.8673L6.90266 27.1841C7.27773 27.5592 7.78644 27.7699 8.31687 27.7699H13.241L17.3099 36.7214C17.6344 37.4354 18.3463 37.8938 19.1306 37.8938H22V39C22 40.1024 22.8916 41 23.9983 41H28.5009C29.6066 41 30.5 40.1034 30.5 39V37.8938H51.8685C52.6806 37.8938 53.4121 37.4027 53.7196 36.6511L57.3528 27.7699H58.4425V35.8938H57.6814C56.5768 35.8938 55.6814 36.7892 55.6814 37.8938V42.951C55.6814 43.4469 55.8656 43.9251 56.1983 44.2929L64.3855 53.3418C64.7647 53.7609 65.3034 54 65.8686 54H68.1062C69.2108 54 70.1062 53.1046 70.1062 52V37.8938C70.1062 36.7892 69.2108 35.8938 68.1062 35.8938H60.4425V20.8673C60.4425 19.7627 59.547 18.8673 58.4425 18.8673H57.328L53.7171 10.843C53.3941 10.1253 52.6803 9.66372 51.8932 9.66372H30.5V8C30.5 6.89543 29.6046 6 28.5 6H24C22.8954 6 22 6.89543 22 8V9.66372H19.1048C18.3472 9.66372 17.6547 10.0917 17.3159 10.7693L13.2669 18.8673L8.90265 18.8673V2C8.90265 0.895431 8.00722 0 6.90265 0H2ZM22 11.6637H19.1048L15.0558 19.7617C14.717 20.4393 14.0245 20.8673 13.2669 20.8673H8.90265C7.79809 20.8673 6.90265 19.9718 6.90265 18.8673V2H2V19.453L8.31687 25.7699H13.241C14.0253 25.7699 14.7372 26.2283 15.0618 26.9423L19.1306 35.8938H22V11.6637ZM24 35.8938V11.6637H28.5V35.8938H24ZM24 37.8938V39H28.5V37.8938H24ZM30.5 35.8938H51.8685L55.5017 27.0126C55.8092 26.261 56.5406 25.7699 57.3528 25.7699H58.4425V20.8673H57.328C56.541 20.8673 55.8271 20.4057 55.5042 19.688L51.8932 11.6637H30.5V35.8938ZM28.5 9.66372H24V8L28.5 8V9.66372ZM57.6814 42.951V37.8938H68.1062V52H65.8686L57.6814 42.951ZM24 39.0008C24.0003 39.0012 24.0004 39.0011 24 39.0009C24 39.0017 24.0001 39.002 24.0001 39.0017L23.9998 39.0008L23.9998 39.0007C23.9995 39.0001 23.9995 39.0003 24 39.0008Z" fill="#333333"/>
</svg>
