<svg width="41" height="54" viewBox="0 0 41 54" fill="none" xmlns="http://www.w3.org/2000/svg">
<path fill-rule="evenodd" clip-rule="evenodd" d="M9.58333 0C8.47876 0 7.58333 0.89543 7.58333 2V3.83579C7.58333 4.36622 7.79405 4.87493 8.16912 5.25L13.65 10.7309V15.1597L0.226043 31.5668L0 31.843V32.2V34.8833C0 35.9879 0.895431 36.8833 2 36.8833H12.5H13.2216L17.1729 52.4908C17.3976 53.3784 18.1962 54 19.1117 54H20.2833H20.5H21.6716C22.5871 54 23.3858 53.3784 23.6104 52.4908L27.5617 36.8833H38.7833C39.8879 36.8833 40.7833 35.9879 40.7833 34.8833V32.557C40.7833 32.0953 40.6236 31.6478 40.3312 31.2905L27.1333 15.1597V10.7309L32.6142 5.25C32.9893 4.87493 33.2 4.36622 33.2 3.83579V2C33.2 0.89543 32.3046 0 31.2 0H20.5H20.2833H9.58333ZM20.2833 2H9.58333V3.83579L15.0642 9.31667H25C25.2186 9.31667 25.429 9.35173 25.6258 9.41654C25.6557 9.3823 25.6868 9.34899 25.7191 9.31667L31.2 3.83579V2H20.5H20.2833ZM25.5877 16.4289C25.4018 16.486 25.2045 16.5167 25 16.5167H15.1239L3.11024 31.2H37.6731L25.5877 16.4289ZM38.7833 33.2H2V34.8833H12.5H13.2216H26.7833H38.7833V33.2ZM15.2847 36.8833L19.1117 52H20.2833H20.5H21.6716L25.4986 36.8833H15.2847ZM15.65 14.5167V11.3167H25V14.5167L15.65 14.5167Z" fill="#333333"/>
</svg>
