<svg width="74" height="17" viewBox="0 0 74 17" fill="none" xmlns="http://www.w3.org/2000/svg">
<path fill-rule="evenodd" clip-rule="evenodd" d="M0 2H66C66.5313 2 67.9981 2.22432 69.3364 3.63759C70.6684 5.04415 72 7.76338 72 13H74C74 7.43662 72.5816 4.15585 70.7886 2.26241C69.0019 0.375682 66.9687 0 66 0H0V2ZM10 11C10 13.2091 8.20914 15 6 15C3.79086 15 2 13.2091 2 11C2 8.79086 3.79086 7 6 7C8.20914 7 10 8.79086 10 11ZM12 11C12 9.46329 11.4223 8.06151 10.4722 7H57.5278C56.5777 8.06151 56 9.46329 56 11C56 14.3137 58.6863 17 62 17C65.3137 17 68 14.3137 68 11C68 7.85467 65.5798 5.27461 62.5 5.02054V5H62H6H5.5V5.02054C2.42023 5.27461 0 7.85467 0 11C0 14.3137 2.68629 17 6 17C9.31371 17 12 14.3137 12 11ZM58 11C58 8.79086 59.7909 7 62 7C64.2091 7 66 8.79086 66 11C66 13.2091 64.2091 15 62 15C59.7909 15 58 13.2091 58 11Z" fill="#333333"/>
</svg>
