<svg width="44" height="55" viewBox="0 0 44 55" fill="none" xmlns="http://www.w3.org/2000/svg">
<path fill-rule="evenodd" clip-rule="evenodd" d="M2.11963 0C0.92595 0 -0.00195139 1.03888 0.132324 2.22498L5.90591 53.225C6.02037 54.236 6.8757 55 7.89321 55H10.6656H13.0988H42C43.1046 55 44 54.1046 44 53V2C44 0.895431 43.1046 0 42 0H28.2494C27.3611 0 26.5792 0.585973 26.3298 1.43861L21.8469 16.7673C21.2979 14.602 19.336 13 17 13C14.2386 13 12 15.2386 12 18C12 20.7614 14.2386 23 17 23C18.3227 23 19.5254 22.4864 20.4196 21.6478L12.5054 48.7094L9.2478 14.1792C9.85649 14.6914 10.6422 15 11.5 15C13.433 15 15 13.433 15 11.5C15 9.567 13.433 8 11.5 8C10.4055 8 9.42828 8.50242 8.78648 9.28922L8.08109 1.81215C7.98418 0.784918 7.12173 0 6.08993 0H2.11963ZM2.11963 2L6.08993 2L10.9013 53H7.89321L2.11963 2ZM28.2494 2L42 2V53H13.3343L28.2494 2ZM17 21C18.6569 21 20 19.6569 20 18C20 16.3431 18.6569 15 17 15C15.3431 15 14 16.3431 14 18C14 19.6569 15.3431 21 17 21ZM13 11.5C13 12.3284 12.3284 13 11.5 13C10.6716 13 10 12.3284 10 11.5C10 10.6716 10.6716 10 11.5 10C12.3284 10 13 10.6716 13 11.5Z" fill="#333333"/>
</svg>
