<svg width="83" height="14" viewBox="0 0 83 14" fill="none" xmlns="http://www.w3.org/2000/svg">
<path fill-rule="evenodd" clip-rule="evenodd" d="M3.6538 0C2.66332 0 1.82203 0.724982 1.67574 1.7046L0.182376 11.7046C0.0018576 12.9134 0.938227 14 2.16044 14H41.5H80.8349C82.0603 14 82.9976 12.908 82.8118 11.6967L81.2777 1.69673C81.128 0.720683 80.2883 0 79.3008 0H74.0549C73.8496 0 73.6455 0.03162 73.4498 0.093751L67.4451 2H15.3807L9.33255 0.0926031C9.13794 0.0312286 8.93508 0 8.73102 0H3.6538ZM15 3.97703V4H15.0728L40.4401 12H2.16044L3.6538 2H8.73102L15 3.97703ZM21.7225 4H61.1451L41.499 10.2368L21.7225 4ZM67.7549 4L42.5549 12H80.8349L79.3008 2L74.0549 2L68 3.9222V4H67.7549Z" fill="black"/>
</svg>
