<svg width="82" height="55" viewBox="0 0 82 55" fill="none" xmlns="http://www.w3.org/2000/svg">
<path fill-rule="evenodd" clip-rule="evenodd" d="M16.9416 1.34897C17.2195 0.541816 17.979 0 18.8327 0H19.7531C20.8577 0 21.7531 0.895431 21.7531 2V4.60905H42.8068C42.8958 3.68525 43.6743 2.96296 44.6214 2.96296H45.3643C46.2423 2.96296 47.0177 3.53561 47.2759 4.37479L52.1089 20.0823H59.2593V19.7778C59.2593 18.6732 60.1547 17.7778 61.2593 17.7778H80C81.1046 17.7778 82 18.6732 82 19.7778V27.3375H80V19.7778H61.2593V20.0823C61.2593 21.1869 60.3638 22.0823 59.2593 22.0823H52.1089C51.2309 22.0823 50.4556 21.5097 50.1974 20.6705L45.3643 4.96296H44.7899C44.7009 5.88677 43.9225 6.60905 42.9753 6.60905H21.7531C20.6485 6.60905 19.7531 5.71362 19.7531 4.60905V2H18.8327L12.3835 20.7333C12.1056 21.5405 11.3461 22.0823 10.4924 22.0823H2V27.3375H0V22.0823C0 20.9777 0.895433 20.0823 2 20.0823H10.4924L16.9416 1.34897Z" fill="#333333"/>
<path fill-rule="evenodd" clip-rule="evenodd" d="M17.1194 2C17.1194 0.89543 18.0148 0 19.1194 0H19.7531C20.8577 0 21.7531 0.895429 21.7531 2V52.3457C21.7531 53.4502 20.8577 54.3457 19.7531 54.3457H19.1194C18.0148 54.3457 17.1194 53.4502 17.1194 52.3457V2ZM19.7531 2H19.1194V52.3457H19.7531L19.7531 2Z" fill="#333333"/>
<path fill-rule="evenodd" clip-rule="evenodd" d="M16.9416 53.3258C17.2195 54.133 17.979 54.6748 18.8327 54.6748H19.7531C20.8577 54.6748 21.7531 53.7794 21.7531 52.6748V50.0658H42.8068C42.8958 50.9896 43.6743 51.7118 44.6214 51.7118H45.3643C46.2423 51.7118 47.0177 51.1392 47.2759 50.3L52.1089 34.5925H59.2593V34.897C59.2593 36.0016 60.1547 36.897 61.2593 36.897H80C81.1046 36.897 82 36.0016 82 34.897V27.3374H80V34.897H61.2593V34.5925C61.2593 33.4879 60.3638 32.5925 59.2593 32.5925H52.1089C51.2309 32.5925 50.4556 33.1651 50.1974 34.0043L45.3643 49.7118H44.7899C44.7009 48.788 43.9225 48.0658 42.9753 48.0658H21.7531C20.6485 48.0658 19.7531 48.9612 19.7531 50.0658V52.6748H18.8327L12.3835 33.9415C12.1056 33.1343 11.3461 32.5925 10.4924 32.5925H2V27.3374H0V32.5925C0 33.6971 0.895433 34.5925 2 34.5925H10.4924L16.9416 53.3258Z" fill="#333333"/>
<path fill-rule="evenodd" clip-rule="evenodd" d="M42.7983 5.29199C42.7983 4.18742 43.6938 3.29199 44.7983 3.29199H45.1029C46.2074 3.29199 47.1029 4.18742 47.1029 5.29199V49.3825C47.1029 50.4871 46.2074 51.3825 45.1029 51.3825H44.7983C43.6938 51.3825 42.7983 50.4871 42.7983 49.3825V5.29199ZM45.1029 5.29199H44.7983V49.3825H45.1029L45.1029 5.29199Z" fill="#333333"/>
<path fill-rule="evenodd" clip-rule="evenodd" d="M59.2593 33.9221V20.7534H61.2593V33.9221H59.2593Z" fill="#333333"/>
</svg>
