<svg width="50" height="57" viewBox="0 0 50 57" fill="none" xmlns="http://www.w3.org/2000/svg">
<path fill-rule="evenodd" clip-rule="evenodd" d="M33.7186 2.811C33.9755 2.71636 34.2607 2.8459 34.3585 3.1016L44.6395 29.9905C44.9296 30.749 45.0558 31.5364 44.9364 32.2958C44.5103 35.0041 43.3034 38.1247 40.9494 40.6825L34.7547 29.0219C34.5811 28.6952 34.2414 28.491 33.8715 28.491H21.4539C21.0566 28.491 20.697 28.7262 20.5378 29.0902L14.3494 43.2351C13.2313 42.7702 12.3644 41.8275 11.953 40.6618L2.79977 14.7277C2.70875 14.4698 2.8418 14.1867 3.09841 14.0921L33.7186 2.811ZM13.9485 44.1515C12.5643 43.5702 11.5087 42.4075 11.01 40.9946L1.85678 15.0605C1.58373 14.2869 1.98288 13.4374 2.7527 13.1538L33.3729 1.87266C34.1435 1.58874 34.9992 1.97735 35.2925 2.74447L45.5736 29.6333C45.9096 30.5122 46.0772 31.4788 45.9242 32.4512C45.4601 35.4014 44.1154 38.8407 41.4451 41.6156L48.2194 54.3673C48.5733 55.0334 48.0905 55.8365 47.3363 55.8365H10.3653C9.64415 55.8365 9.16009 55.0964 9.44914 54.4357L13.9485 44.1515Z" fill="white"/>
<path fill-rule="evenodd" clip-rule="evenodd" d="M10.3653 54.8363L47.3363 54.8363L33.8716 29.4908L21.454 29.4908L10.3653 54.8363ZM41.1328 38.8961C42.7353 36.7472 43.6075 34.3077 43.9485 32.1401C44.0345 31.5936 43.9495 30.9856 43.7055 30.3474L33.6008 3.91987L3.90692 14.8597L12.896 40.3287C13.1008 40.9091 13.4474 41.4117 13.8897 41.7908L19.6216 28.6892C19.9401 27.9612 20.6594 27.4908 21.4539 27.4908H33.8716C34.6113 27.4908 35.2907 27.8992 35.6378 28.5525L41.1328 38.8961ZM42.6605 41.7717C45.1708 38.9248 46.4518 35.532 46.9121 32.6064C47.0986 31.421 46.8896 30.275 46.5076 29.276L36.2266 2.3871C35.7378 1.10856 34.3116 0.460884 33.0272 0.934087L2.40701 12.2152C1.12397 12.6879 0.458715 14.1037 0.9138 15.3931L10.067 41.3272C10.5426 42.6747 11.4515 43.8388 12.6594 44.6028L8.533 54.0346C7.9549 55.356 8.92301 56.8363 10.3653 56.8363H47.3363C48.8447 56.8363 49.8102 55.2301 49.1026 53.898L42.6605 41.7717Z" fill="#333333"/>
</svg>
