<svg width="48" height="52" viewBox="0 0 48 52" fill="none" xmlns="http://www.w3.org/2000/svg">
<path fill-rule="evenodd" clip-rule="evenodd" d="M6.5934 0C5.48883 0 4.5934 0.895429 4.5934 2V4.91232L2.06389 3.9981C1.54449 3.81038 0.971249 4.07926 0.783527 4.59866L0.339962 5.82594C0.152241 6.34535 0.42112 6.91858 0.940521 7.10631L4.5934 8.42653V15.6179L2.06389 14.7037C1.54449 14.5159 0.971249 14.7848 0.783527 15.3042L0.339962 16.5315C0.152241 17.0509 0.42112 17.6242 0.940521 17.8119L4.5934 19.1321V26.3235L2.06389 25.4092C1.54449 25.2215 0.971249 25.4904 0.783527 26.0098L0.339962 27.2371C0.152241 27.7565 0.42112 28.3297 0.940521 28.5174L4.5934 29.8377V37.029L2.06389 36.1148C1.54449 35.9271 0.971249 36.196 0.783527 36.7154L0.339962 37.9426C0.152241 38.462 0.42112 39.0353 0.940521 39.223L4.5934 40.5432V50C4.5934 51.1046 5.48883 52 6.5934 52H10.0934C11.198 52 12.0934 51.1046 12.0934 50V43.2539L14.5463 44.1404C15.0657 44.3281 15.6389 44.0593 15.8267 43.5399L16.2702 42.3126C16.458 41.7932 16.1891 41.2199 15.6697 41.0322L12.0934 39.7397V32.5483L14.5463 33.4348C15.0657 33.6226 15.6389 33.3537 15.8267 32.8343L16.2702 31.607C16.458 31.0876 16.1891 30.5144 15.6697 30.3266L12.0934 29.0341V21.8428L14.5463 22.7293C15.0657 22.917 15.6389 22.6481 15.8267 22.1287L16.2702 20.9014C16.458 20.382 16.1891 19.8088 15.6697 19.6211L12.0934 18.3285V11.1372L14.5463 12.0237C15.0657 12.2114 15.6389 11.9426 15.8267 11.4232L16.2702 10.1959C16.458 9.67647 16.1891 9.10324 15.6697 8.91551L12.0934 7.62297V2C12.0934 0.895431 11.198 0 10.0934 0H6.5934ZM6.5934 50V41.2661L10.0934 42.531V50H6.5934ZM6.5934 37.7519L10.0934 39.0168V31.8255L6.5934 30.5605V37.7519ZM10.0934 28.3113V21.1199L6.5934 19.8549V27.0463L10.0934 28.3113ZM6.5934 16.3407L10.0934 17.6057V10.4143L6.5934 9.14937V16.3407ZM10.0934 6.90013V2L6.5934 2V5.63516L10.0934 6.90013ZM37.3132 0C36.2087 0 35.3132 0.895429 35.3132 2V4.91232L32.7837 3.9981C32.2643 3.81038 31.6911 4.07926 31.5034 4.59866L31.0598 5.82594C30.8721 6.34535 31.141 6.91858 31.6604 7.10631L35.3132 8.42653V15.6179L32.7837 14.7037C32.2643 14.5159 31.6911 14.7848 31.5034 15.3042L31.0598 16.5315C30.8721 17.0509 31.141 17.6242 31.6604 17.8119L35.3132 19.1321V26.3235L32.7837 25.4092C32.2643 25.2215 31.6911 25.4904 31.5034 26.0098L31.0598 27.2371C30.8721 27.7565 31.141 28.3297 31.6604 28.5174L35.3132 29.8377V37.029L32.7837 36.1148C32.2643 35.9271 31.6911 36.196 31.5034 36.7154L31.0598 37.9426C30.8721 38.462 31.141 39.0353 31.6604 39.223L35.3132 40.5432V50C35.3132 51.1046 36.2087 52 37.3132 52H40.8132C41.9178 52 42.8132 51.1046 42.8132 50V43.2539L45.2662 44.1404C45.7856 44.3281 46.3588 44.0593 46.5465 43.5399L46.9901 42.3126C47.1778 41.7932 46.9089 41.2199 46.3895 41.0322L42.8132 39.7397V32.5483L45.2662 33.4348C45.7856 33.6226 46.3588 33.3537 46.5465 32.8343L46.9901 31.607C47.1778 31.0876 46.9089 30.5144 46.3895 30.3266L42.8132 29.0341V21.8428L45.2662 22.7293C45.7856 22.917 46.3588 22.6481 46.5465 22.1287L46.9901 20.9014C47.1778 20.382 46.9089 19.8088 46.3895 19.6211L42.8132 18.3285V11.1372L45.2662 12.0237C45.7856 12.2114 46.3588 11.9426 46.5465 11.4232L46.9901 10.1959C47.1778 9.67647 46.9089 9.10324 46.3895 8.91551L42.8132 7.62297V2C42.8132 0.895431 41.9178 0 40.8132 0H37.3132ZM37.3132 50V41.2661L40.8132 42.531V50H37.3132ZM37.3132 37.7519L40.8132 39.0168V31.8255L37.3132 30.5605V37.7519ZM40.8132 28.3113V21.1199L37.3132 19.8549V27.0463L40.8132 28.3113ZM37.3132 16.3407L40.8132 17.6057V10.4143L37.3132 9.14937V16.3407ZM40.8132 6.90013V2L37.3132 2V5.63516L40.8132 6.90013Z" fill="#333333"/>
</svg>
