<svg width="23" height="40" viewBox="0 0 23 40" fill="none" xmlns="http://www.w3.org/2000/svg">
<path fill-rule="evenodd" clip-rule="evenodd" d="M20.9 2.63179C20.901 2.63189 20.8946 2.63987 20.8773 2.65543C20.8903 2.63947 20.8989 2.63168 20.9 2.63179ZM18.8512 2.8611C19.2449 2.97181 19.5808 3.08485 19.8624 3.195C19.5808 3.30516 19.2449 3.41819 18.8512 3.5289C17.0168 4.04483 14.3676 4.39 11.36 4.39C8.3524 4.39 5.70316 4.04483 3.86876 3.5289C3.47512 3.41819 3.13918 3.30515 2.85762 3.195C3.13918 3.08485 3.47512 2.97181 3.86876 2.8611C5.70316 2.34517 8.3524 2 11.36 2C14.3676 2 17.0168 2.34517 18.8512 2.8611ZM1.82003 2.63179C1.82111 2.63169 1.82972 2.63947 1.84265 2.65543C1.82542 2.63987 1.81896 2.63189 1.82003 2.63179ZM20.7 5.01417C18.6489 5.84559 15.2305 6.39 11.36 6.39C7.47687 6.39 4.04879 5.84203 2 5.00604V36.8995C2.04905 36.9244 2.11171 36.9533 2.19041 36.9853C2.61616 37.1587 3.29225 37.336 4.20114 37.4925C6.00273 37.8027 8.53076 38 11.35 38C14.1692 38 16.6973 37.8027 18.4989 37.4925C19.4078 37.336 20.0838 37.1587 20.5096 36.9853C20.5883 36.9533 20.6509 36.9244 20.7 36.8995V5.01417ZM22.7 3.38617V37.2178C22.7 37.7638 22.3766 38.1377 22.1336 38.3421C21.8817 38.5541 21.57 38.713 21.2637 38.8377C20.642 39.0908 19.8023 39.2975 18.8382 39.4635C16.8939 39.7983 14.2469 40 11.35 40C8.45309 40 5.80613 39.7983 3.86175 39.4635C2.89766 39.2975 2.05802 39.0908 1.4363 38.8377C1.13001 38.713 0.818349 38.5541 0.566421 38.3421C0.323421 38.1377 0 37.7638 0 37.2178V3.195V3H0.0208112C0.379101 1.32626 5.31886 0 11.36 0C17.4011 0 22.3409 1.32626 22.6992 3H22.7V3.00383C22.7133 3.06708 22.72 3.13082 22.72 3.195C22.72 3.25918 22.7133 3.32292 22.7 3.38617Z" fill="#333333"/>
</svg>
