<svg width="81" height="25" viewBox="0 0 81 25" fill="none" xmlns="http://www.w3.org/2000/svg">
<path fill-rule="evenodd" clip-rule="evenodd" d="M40 0H2C0.895432 0 0 0.89543 0 2V5.00254C0 5.86128 0.548191 6.62418 1.36208 6.89808L33.0725 17.5699L36.6812 23.3993C37.0458 23.9882 37.6891 24.3466 38.3818 24.3466H40.3427H40.6574H42.6183C43.3109 24.3466 43.9542 23.9882 44.3188 23.3993L47.9275 17.5699L79.638 6.89808C80.4519 6.62418 81 5.86128 81 5.00254V2C81 0.89543 80.1046 0 79 0H40.6574H40.3427H40ZM39 2H2V5.00254L33.7104 15.6743C34.152 15.8229 34.5278 16.121 34.773 16.5172L38.3818 22.3466H40.3427H40.6574H42.6183L46.227 16.5172C46.4722 16.121 46.8481 15.8229 47.2896 15.6743L79 5.00254V2H41V13.6869L70.5046 2.96175C71.0237 2.77307 71.5974 3.04089 71.7861 3.55995C71.9748 4.079 71.707 4.65274 71.1879 4.84142L40.6231 15.952C40.4564 16.0126 40.2841 16.0261 40.1207 15.9993C39.9573 16.0261 39.785 16.0126 39.6183 15.952L9.05346 4.84142C8.5344 4.65274 8.26658 4.079 8.45526 3.55995C8.64394 3.04089 9.21767 2.77307 9.73673 2.96175L39 13.5992V2Z" fill="#333333"/>
</svg>
