<svg width="17" height="52" viewBox="0 0 17 52" fill="none" xmlns="http://www.w3.org/2000/svg">
<path fill-rule="evenodd" clip-rule="evenodd" d="M2 0C0.895431 0 0 0.89543 0 2V20.3981C0 20.5336 0.0137658 20.6687 0.0410858 20.8014L6.10619 50.2605C6.53826 52.3592 9.5212 52.401 10.0119 50.3153L16.9468 20.842C16.9822 20.6919 17 20.5382 17 20.3839V2C17 0.895431 16.1046 0 15 0H2ZM12.5521 2H2V8.68298L12.5521 2ZM2 12.2484V19.5H14.3277L2 12.2484ZM2.22686 21.5L8.06511 49.8572L14.7469 21.4598C14.6142 21.4861 14.4743 21.5 14.3277 21.5H2.22686ZM15 17.5751V2.81702L2.91873 10.4685L15 17.5751Z" fill="#333333"/>
</svg>
