<svg width="54" height="52" viewBox="0 0 54 52" fill="none" xmlns="http://www.w3.org/2000/svg">
<path fill-rule="evenodd" clip-rule="evenodd" d="M53.5 2.39611C53.5 1.0261 52.1537 0.0616652 50.8565 0.50245L1.35652 17.3228C0.545485 17.5984 0 18.3599 0 19.2165V32.3957C0 33.139 0.412217 33.821 1.07033 34.1665L20 44.1046V52.0001H22V43.9832L52.7433 19.5837C53.2214 19.2043 53.5 18.6274 53.5 18.0171V2.39611ZM51.5 18.0171L20.8883 42.3121L3.70907 33.293L51.5 16.7318V18.0171ZM51.5 14.6151L2 31.7685L2 26.3852L51.5 9.23175V14.6151ZM51.5 7.11507L2 24.2685L2 19.2165L51.5 2.39611V7.11507Z" fill="#333333"/>
</svg>
