<svg width="46" height="56" viewBox="0 0 46 56" fill="none" xmlns="http://www.w3.org/2000/svg">
<path fill-rule="evenodd" clip-rule="evenodd" d="M8.5 2C8.5 0.89543 9.39543 0 10.5 0H39.3287C40.1408 0 40.8722 0.491085 41.1797 1.24273L45.2148 11.1061C45.4769 11.7468 45.389 12.4775 44.9825 13.0378L27.1089 37.6745C26.7327 38.193 26.1307 38.5 25.49 38.5H10.5C9.39543 38.5 8.5 37.6046 8.5 36.5V2ZM39.3287 2H10.5V10.5H42.8059L39.3287 2ZM10.5 36.5V12.5H42.9018L25.49 36.5H10.5ZM9 48.5C9 49.6046 8.10457 50.5 7 50.5C5.89543 50.5 5 49.6046 5 48.5C5 47.3954 5.89543 46.5 7 46.5C8.10457 46.5 9 47.3954 9 48.5ZM11 48.5C11 50.7091 9.20914 52.5 7 52.5C4.79086 52.5 3 50.7091 3 48.5C3 46.2909 4.79086 44.5 7 44.5C9.20914 44.5 11 46.2909 11 48.5ZM35 50.5C36.1046 50.5 37 49.6046 37 48.5C37 47.3954 36.1046 46.5 35 46.5C33.8954 46.5 33 47.3954 33 48.5C33 49.6046 33.8954 50.5 35 50.5ZM35 52.5C37.2091 52.5 39 50.7091 39 48.5C39 46.2909 37.2091 44.5 35 44.5C32.7909 44.5 31 46.2909 31 48.5C31 50.7091 32.7909 52.5 35 52.5ZM7 43.5H35C37.7614 43.5 40 45.7386 40 48.5C40 51.2614 37.7614 53.5 35 53.5H7C4.23858 53.5 2 51.2614 2 48.5C2 45.7386 4.23858 43.5 7 43.5ZM0 48.5C0 44.634 3.13401 41.5 7 41.5H35C38.866 41.5 42 44.634 42 48.5C42 52.366 38.866 55.5 35 55.5H7C3.13401 55.5 0 52.366 0 48.5Z" fill="#333333"/>
</svg>
