<svg width="86" height="30" viewBox="0 0 86 30" fill="none" xmlns="http://www.w3.org/2000/svg">
<path fill-rule="evenodd" clip-rule="evenodd" d="M0 2C0 0.895431 0.895431 0 2 0H33.8605C34.965 0 35.8605 0.895429 35.8605 2V5.86035H49.4884V2C49.4884 0.895431 50.3838 0 51.4884 0H83.3489C84.4534 0 85.3489 0.895429 85.3489 2V28C85.3489 29.1046 84.4534 30 83.3489 30H51.4884C50.3838 30 49.4884 29.1046 49.4884 28V7.86035H35.8605V28C35.8605 29.1046 34.965 30 33.8605 30H2C0.895431 30 0 29.1046 0 28V2ZM3.37203 2H32.4039L17.3073 16.5159L3.37203 2ZM2 28V3.45876L15.8646 17.901C16.6299 18.6983 17.8969 18.7236 18.6935 17.9576L33.8605 3.37403V28L2 28ZM66.7957 16.5159L52.8604 2H81.8923L66.7957 16.5159ZM68.182 17.9576L83.3489 3.37404V28L51.4884 28V3.45876L65.353 17.901C66.1183 18.6983 67.3853 18.7236 68.182 17.9576Z" fill="#333333"/>
</svg>
