<svg width="83" height="26" viewBox="0 0 83 26" fill="none" xmlns="http://www.w3.org/2000/svg">
<path fill-rule="evenodd" clip-rule="evenodd" d="M16.6869 0C16.1565 0 15.6478 0.210713 15.2727 0.585786L7.13124 8.72727H2C0.89543 8.72727 0 9.6227 0 10.7273V12.4545V13.5455V15.2727C0 16.3773 0.89543 17.2727 2 17.2727H7.13124L15.2727 25.4142C15.6478 25.7893 16.1565 26 16.6869 26H64.9494C65.4799 26 65.9886 25.7893 66.3636 25.4142L74.5051 17.2727L80.1818 17.2727C81.2864 17.2727 82.1818 16.3773 82.1818 15.2727V13.5455V12.4545V10.7273C82.1818 9.6227 81.2864 8.72727 80.1818 8.72727L74.5051 8.72727L66.3636 0.585787C65.9886 0.210713 65.4799 0 64.9494 0H16.6869ZM80.1818 12.4545V10.7273H74.5051C73.9747 10.7273 73.466 10.5166 73.0909 10.1415L65.2727 2.32329V23.6767L73.0909 15.8585C73.466 15.4834 73.9747 15.2727 74.5051 15.2727H80.1818V13.5455V12.4545ZM63.2727 24H18.9091V2L63.2727 2V24ZM16.9091 24V2H16.6869L8.54545 10.1415C8.17038 10.5166 7.66167 10.7273 7.13124 10.7273H2V12.4545V13.5455V15.2727H7.13124C7.66167 15.2727 8.17038 15.4834 8.54545 15.8585L16.6869 24H16.9091Z" fill="black"/>
</svg>
