<svg width="52" height="53" viewBox="0 0 52 53" fill="none" xmlns="http://www.w3.org/2000/svg">
<path fill-rule="evenodd" clip-rule="evenodd" d="M44.8 23.4C44.8 35.2189 35.2189 44.8 23.4 44.8C11.5811 44.8 2 35.2189 2 23.4C2 11.5811 11.5811 2 23.4 2C26.5786 2 29.5953 2.693 32.3074 3.93615V4.25H32.9623C39.981 7.76149 44.8 15.018 44.8 23.4ZM36.851 4.25C39.9227 6.41153 42.4509 9.29338 44.19 12.65L49.6997 12.65L49.6997 4.25H36.851ZM33.4247 2.25H49.6997C50.8043 2.25 51.6997 3.14543 51.6997 4.25V12.65C51.6997 13.7546 50.8043 14.65 49.6997 14.65H45.1092C46.1997 17.353 46.8 20.3064 46.8 23.4C46.8 30.8196 43.3468 37.4327 37.9598 41.7198L43.8537 49.8238C44.8151 51.1457 43.8708 53.0001 42.2362 53.0001H23.4H23.4H3.33654C1.67517 53.0001 0.738126 51.0918 1.75397 49.7772L8.31368 41.2882C3.22926 36.9958 0 30.575 0 23.4C0 10.4765 10.4765 0 23.4 0C26.9873 0 30.3862 0.807248 33.4247 2.25ZM23.4 46.8C28.186 46.8 32.6363 45.3632 36.3433 42.8974L42.2362 51.0001L23.4 51.0001H23.4H3.33654L9.8954 42.5122C13.7106 45.2129 18.37 46.8 23.4 46.8Z" fill="#333333"/>
</svg>
