<svg width="24" height="55" viewBox="0 0 24 55" fill="none" xmlns="http://www.w3.org/2000/svg">
<path fill-rule="evenodd" clip-rule="evenodd" d="M5.42029 2C5.42029 0.895432 6.31572 0 7.42029 0H16.2609C17.3654 0 18.2609 0.89543 18.2609 2V4.67647L22 4.67647C23.1046 4.67647 24 5.5719 24 6.67647V38.275L18.4399 53.679C18.1538 54.4717 17.4014 55 16.5587 55H8.35959C7.55494 55 6.82865 54.5178 6.51636 53.7762L0 38.302V6.67647C0 5.5719 0.895429 4.67647 2 4.67647H5.42029V2ZM16.2609 2L7.42029 2V4.67647C7.42029 5.78104 6.52486 6.67647 5.42029 6.67647L2 6.67647V37.1H22L22 6.67647H18.2609C17.1563 6.67647 16.2609 5.78104 16.2609 4.67647V2ZM21.5759 39.1H2.50616L8.35959 53H16.5587L21.5759 39.1Z" fill="#333333"/>
</svg>
