<svg width="75" height="40" viewBox="0 0 75 40" fill="none" xmlns="http://www.w3.org/2000/svg">
<path fill-rule="evenodd" clip-rule="evenodd" d="M20.9 2.63179C20.901 2.63189 20.8946 2.63987 20.8773 2.65543C20.8903 2.63947 20.8989 2.63168 20.9 2.63179ZM19.8624 3.195C19.5808 3.08485 19.2449 2.97181 18.8512 2.8611C17.0168 2.34517 14.3676 2 11.36 2C8.3524 2 5.70316 2.34517 3.86876 2.8611C3.47512 2.97181 3.13918 3.08485 2.85762 3.195C3.13918 3.30515 3.47512 3.41819 3.86876 3.5289C5.70316 4.04483 8.3524 4.39 11.36 4.39C14.3676 4.39 17.0168 4.04483 18.8512 3.5289C19.2449 3.41819 19.5808 3.30516 19.8624 3.195ZM1.82003 2.63179C1.82111 2.63169 1.82972 2.63947 1.84265 2.65543C1.82542 2.63987 1.81896 2.63189 1.82003 2.63179ZM1.82003 3.75821C1.81896 3.75811 1.82542 3.75013 1.84265 3.73457C1.82972 3.75053 1.82111 3.75831 1.82003 3.75821ZM20.8773 3.73457C20.8946 3.75013 20.901 3.75811 20.9 3.75821C20.8989 3.75831 20.8903 3.75053 20.8773 3.73457ZM11.36 6.39C17.634 6.39 22.72 4.95955 22.72 3.195C22.72 1.43045 17.634 0 11.36 0C5.08605 0 0 1.43045 0 3.195C0 4.95955 5.08605 6.39 11.36 6.39Z" fill="#333333"/>
<path fill-rule="evenodd" clip-rule="evenodd" d="M2 36.8995V3H0V37.2178C0 37.7638 0.323421 38.1377 0.566421 38.3421C0.818349 38.5541 1.13001 38.713 1.4363 38.8377C2.05802 39.0908 2.89766 39.2975 3.86175 39.4635C5.80613 39.7983 8.45309 40 11.35 40C14.2469 40 16.8939 39.7983 18.8382 39.4635C19.8023 39.2975 20.642 39.0908 21.2637 38.8377C21.57 38.713 21.8817 38.5541 22.1336 38.3421C22.3766 38.1377 22.7 37.7638 22.7 37.2178V3H20.7V36.8995C20.6509 36.9244 20.5883 36.9533 20.5096 36.9853C20.0838 37.1587 19.4078 37.336 18.4989 37.4925C16.6973 37.8027 14.1692 38 11.35 38C8.53076 38 6.00273 37.8027 4.20114 37.4925C3.29225 37.336 2.61616 37.1587 2.19041 36.9853C2.11171 36.9533 2.04905 36.9244 2 36.8995ZM20.8499 36.8083C20.8499 36.8083 20.8492 36.8089 20.8479 36.8102C20.8492 36.8089 20.8499 36.8083 20.8499 36.8083ZM1.85214 36.8102C1.85074 36.8089 1.85009 36.8083 1.85012 36.8083C1.85015 36.8083 1.85086 36.8089 1.85214 36.8102Z" fill="#333333"/>
<path fill-rule="evenodd" clip-rule="evenodd" d="M46.6199 2.63179C46.621 2.63189 46.6145 2.63987 46.5973 2.65543C46.6102 2.63947 46.6189 2.63168 46.6199 2.63179ZM45.5823 3.195C45.3008 3.08485 44.9648 2.97181 44.5712 2.8611C42.7368 2.34517 40.0876 2 37.08 2C34.0724 2 31.4231 2.34517 29.5887 2.8611C29.1951 2.97181 28.8591 3.08485 28.5776 3.195C28.8591 3.30515 29.1951 3.41819 29.5887 3.5289C31.4231 4.04483 34.0724 4.39 37.08 4.39C40.0876 4.39 42.7368 4.04483 44.5712 3.5289C44.9648 3.41819 45.3008 3.30516 45.5823 3.195ZM27.54 2.63179C27.5411 2.63169 27.5497 2.63947 27.5626 2.65543C27.5454 2.63987 27.5389 2.63189 27.54 2.63179ZM27.54 3.75821C27.5389 3.75811 27.5454 3.75013 27.5626 3.73457C27.5497 3.75053 27.5411 3.75831 27.54 3.75821ZM46.5973 3.73457C46.6145 3.75013 46.621 3.75811 46.6199 3.75821C46.6189 3.75831 46.6102 3.75053 46.5973 3.73457ZM37.08 6.39C43.3539 6.39 48.44 4.95955 48.44 3.195C48.44 1.43045 43.3539 0 37.08 0C30.806 0 25.72 1.43045 25.72 3.195C25.72 4.95955 30.806 6.39 37.08 6.39Z" fill="#333333"/>
<path fill-rule="evenodd" clip-rule="evenodd" d="M27.72 36.8995V3H25.72V37.2178C25.72 37.7638 26.0434 38.1377 26.2864 38.3421C26.5383 38.5541 26.85 38.713 27.1563 38.8377C27.778 39.0908 28.6176 39.2975 29.5817 39.4635C31.5261 39.7983 34.1731 40 37.07 40C39.9669 40 42.6138 39.7983 44.5582 39.4635C45.5223 39.2975 46.3619 39.0908 46.9837 38.8377C47.29 38.713 47.6016 38.5541 47.8535 38.3421C48.0965 38.1377 48.42 37.7638 48.42 37.2178V3H46.42V36.8995C46.3709 36.9244 46.3083 36.9533 46.2296 36.9853C45.8038 37.1587 45.1277 37.336 44.2188 37.4925C42.4172 37.8027 39.8892 38 37.07 38C34.2507 38 31.7227 37.8027 29.9211 37.4925C29.0122 37.336 28.3361 37.1587 27.9104 36.9853C27.8317 36.9533 27.769 36.9244 27.72 36.8995ZM46.5698 36.8083C46.5699 36.8083 46.5692 36.8089 46.5678 36.8102C46.5691 36.8089 46.5698 36.8083 46.5698 36.8083ZM27.5721 36.8102C27.5707 36.8089 27.5701 36.8083 27.5701 36.8083C27.5701 36.8083 27.5708 36.8089 27.5721 36.8102Z" fill="#333333"/>
<path fill-rule="evenodd" clip-rule="evenodd" d="M72.3399 2.63179C72.341 2.63189 72.3345 2.63987 72.3173 2.65543C72.3302 2.63947 72.3388 2.63168 72.3399 2.63179ZM71.3023 3.195C71.0208 3.08485 70.6848 2.97181 70.2912 2.8611C68.4568 2.34517 65.8075 2 62.7999 2C59.7923 2 57.1431 2.34517 55.3087 2.8611C54.9151 2.97181 54.5791 3.08485 54.2976 3.195C54.5791 3.30515 54.9151 3.41819 55.3087 3.5289C57.1431 4.04483 59.7923 4.39 62.7999 4.39C65.8075 4.39 68.4568 4.04483 70.2912 3.5289C70.6848 3.41819 71.0208 3.30516 71.3023 3.195ZM53.26 2.63179C53.261 2.63169 53.2697 2.63947 53.2826 2.65543C53.2654 2.63987 53.2589 2.63189 53.26 2.63179ZM53.26 3.75821C53.2589 3.75811 53.2654 3.75013 53.2826 3.73457C53.2697 3.75053 53.261 3.75831 53.26 3.75821ZM72.3173 3.73457C72.3345 3.75013 72.341 3.75811 72.3399 3.75821C72.3388 3.75831 72.3302 3.75053 72.3173 3.73457ZM62.7999 6.39C69.0739 6.39 74.1599 4.95955 74.1599 3.195C74.1599 1.43045 69.0739 0 62.7999 0C56.526 0 51.4399 1.43045 51.4399 3.195C51.4399 4.95955 56.526 6.39 62.7999 6.39Z" fill="#333333"/>
<path fill-rule="evenodd" clip-rule="evenodd" d="M53.4399 36.8995V3H51.4399V37.2178C51.4399 37.7638 51.7634 38.1377 52.0064 38.3421C52.2583 38.5541 52.5699 38.713 52.8762 38.8377C53.498 39.0908 54.3376 39.2975 55.3017 39.4635C57.2461 39.7983 59.893 40 62.7899 40C65.6869 40 68.3338 39.7983 70.2782 39.4635C71.2423 39.2975 72.0819 39.0908 72.7036 38.8377C73.0099 38.713 73.3216 38.5541 73.5735 38.3421C73.8165 38.1377 74.1399 37.7638 74.1399 37.2178V3H72.1399V36.8995C72.0909 36.9244 72.0282 36.9533 71.9495 36.9853C71.5238 37.1587 70.8477 37.336 69.9388 37.4925C68.1372 37.8027 65.6092 38 62.7899 38C59.9707 38 57.4427 37.8027 55.6411 37.4925C54.7322 37.336 54.0561 37.1587 53.6304 36.9853C53.5517 36.9533 53.489 36.9244 53.4399 36.8995ZM72.2898 36.8083C72.2898 36.8083 72.2892 36.8089 72.2878 36.8102C72.2891 36.8089 72.2898 36.8083 72.2898 36.8083ZM53.2921 36.8102C53.2907 36.8089 53.29 36.8083 53.2901 36.8083C53.2901 36.8083 53.2908 36.8089 53.2921 36.8102Z" fill="#333333"/>
</svg>
